<svg width="49" height="48" viewBox="0 0 49 48" fill="none" xmlns="http://www.w3.org/2000/svg">
<rect x="0.833252" width="48" height="48" rx="24" fill="#F5FAFF"/>
<path d="M31.8904 22.2763L23.6874 30.4793C22.4321 28.2473 20.586 26.4013 18.354 25.146L28.6581 14.8419C29.1861 14.3139 29.4501 14.0499 29.7545 13.951C30.0223 13.864 30.3108 13.864 30.5786 13.951C30.883 14.0499 31.147 14.3139 31.6751 14.842L33.9914 17.1583C34.5194 17.6863 34.7834 17.9503 34.8824 18.2548C34.9694 18.5226 34.9694 18.811 34.8824 19.0788C34.7834 19.3833 34.5194 19.6473 33.9914 20.1753L33.7761 20.3906L35.9713 22.5859C36.7524 23.367 36.7524 24.6333 35.9713 25.4143L32.4427 28.9429C31.922 29.4636 31.0778 29.4636 30.5571 28.9429C30.0364 28.4222 30.0364 27.578 30.5571 27.0573L33.6143 24.0001L31.8904 22.2763Z" fill="#437EF7"/>
<path d="M16.5147 27.6223L15.5158 30.6191C15.0815 31.9219 14.8644 32.5733 15.0189 33.0064C15.1533 33.3834 15.45 33.6801 15.8269 33.8145C16.2601 33.9689 16.9115 33.7518 18.2143 33.3176L21.211 32.3186C21.362 32.2683 21.4813 32.2285 21.581 32.1933C20.497 30.067 18.7663 28.3364 16.6401 27.2524C16.6048 27.3521 16.565 27.4714 16.5147 27.6223Z" fill="#437EF7"/>
</svg>
