<svg width="49" height="48" viewBox="0 0 49 48" fill="none" xmlns="http://www.w3.org/2000/svg">
<rect x="0.5" width="48" height="48" rx="24" fill="#F5FAFF"/>
<path d="M12.5001 12C11.7637 12 11.1667 12.597 11.1667 13.3333C11.1667 14.0697 11.7637 14.6667 12.5001 14.6667H13.9994L15.6699 27.1953C15.9348 29.1825 17.63 30.6667 19.6348 30.6667H31.2281C33.0566 30.6667 34.6522 29.4268 35.1041 27.6551L36.944 20.4403C37.5889 17.9112 35.6781 15.4519 33.068 15.4519H16.7944L16.6427 14.3142C16.466 12.9894 15.3359 12 13.9994 12H12.5001Z" fill="#437EF7"/>
<path d="M15.1667 34.6667C15.1667 33.1939 16.3607 32 17.8334 32C19.3062 32 20.5001 33.1939 20.5001 34.6667C20.5001 36.1394 19.3062 37.3333 17.8334 37.3333C16.3607 37.3333 15.1667 36.1394 15.1667 34.6667Z" fill="#437EF7"/>
<path d="M32.5001 32C31.0273 32 29.8334 33.1939 29.8334 34.6667C29.8334 36.1394 31.0273 37.3333 32.5001 37.3333C33.9728 37.3333 35.1667 36.1394 35.1667 34.6667C35.1667 33.1939 33.9728 32 32.5001 32Z" fill="#437EF7"/>
</svg>
